<svg xmlns="http://www.w3.org/2000/svg" xml:space="preserve" width="0.71in" height="0.153067in" version="1.1" shape-rendering="geometricPrecision" text-rendering="geometricPrecision" image-rendering="optimizeQuality" fill-rule="evenodd" clip-rule="evenodd"

viewBox="0 0 710 153"

 xmlns:xlink="http://www.w3.org/1999/xlink">

 <g id="Layer_x0020_1">

  <metadata id="CorelCorpID_0Corel-Layer"/>

  <g id="_234065680">

   <path id="Vector.svg" fill="#182D42" d="M652 27c-1,0 -1,23 -2,29 -6,1 -29,1 -29,2 0,1 23,1 29,2 1,6 1,29 2,29 1,0 1,-23 2,-29 7,-1 29,-1 29,-2 0,-1 -22,-1 -29,-2 -1,-6 -1,-29 -2,-29zm-58 31l46 -6c2,0 3,-1 4,-2 1,-1 2,-2 2,-4l6 -46 6 46c0,2 1,3 2,4 1,1 2,2 4,2l46 6 -46 6c-2,0 -3,1 -4,2 -1,1 -2,2 -2,4l-6 46 -6 -46c0,-2 -1,-3 -2,-4 -1,-1 -2,-2 -4,-2l-46 -6z"/>

   <path id="Vector-1.svg" fill="#182D42" d="M225 96c0,-3 -2,-5 -6,-5 -4,0 -6,1 -7,4 0,1 2,3 7,4 4,1 7,2 10,3 3,0 5,1 8,2 4,2 6,5 6,10 0,7 -3,13 -9,17 -6,4 -14,6 -24,6 -7,0 -13,-2 -18,-5 -4,-2 -6,-6 -6,-12l0 -2 21 0 0 1c0,4 2,6 6,6 2,0 4,-1 5,-2 1,0 2,0 2,-1 0,-1 1,-2 1,-2 0,-2 -1,-3 -3,-4l-10 -2c-3,-1 -5,-2 -8,-3 -2,0 -3,-2 -5,-3 -3,-2 -4,-5 -4,-8l0 -1 1 -2c0,-4 3,-9 8,-12 2,-2 5,-4 8,-4 4,-1 9,-2 13,-2 16,0 23,5 23,15l0 2 -19 0zm-88 -15l21 0 4 33 15 -33 20 0 -29 56c-2,4 -4,7 -7,10 -2,2 -4,4 -7,5 -4,1 -8,1 -11,1l-12 0 3 -15 3 0c2,0 4,0 7,-1 1,-1 2,-2 2,-4l0 -2 0 -1 -9 -49zm-24 30c-3,1 -5,2 -8,2l-4 1c-1,0 -2,1 -3,1 -2,1 -3,3 -3,5 0,2 2,4 6,4 1,0 3,0 5,-1 1,0 2,-1 3,-3 2,-2 4,-6 4,-9l0 0zm-33 -14c2,-12 13,-18 34,-18 9,0 14,1 18,4 3,2 5,6 5,10 0,2 0,5 -1,7l-4 26 -1 4c0,1 1,3 2,4l0 1 -22 0 0 -6c-6,5 -14,8 -22,8 -5,0 -9,-2 -13,-4 -2,-2 -3,-5 -3,-9l0 -2 0 -2c1,-5 3,-8 6,-11 3,-2 6,-4 9,-5l6 -1 8 -1c5,-1 9,-1 10,-2 2,-1 4,-2 4,-4 0,-3 -2,-4 -7,-4 -4,0 -7,2 -8,5l-21 0zm-67 -37l36 0c11,0 18,2 22,5 5,2 7,6 7,11 0,6 -2,11 -4,15 -2,2 -4,4 -6,6 -2,1 -4,2 -6,3 4,1 6,3 7,4 2,2 2,4 2,8 0,3 0,5 0,8l-1 5 -1 5c0,2 1,3 2,3l0 2 -25 0 0 -3c0,-2 0,-5 1,-7l0 -9c0,-3 -1,-5 -3,-6 -2,-1 -6,-1 -11,-1l-4 0 -5 26 -24 0 13 -75zm21 18l-2 15 10 0c7,0 11,-3 12,-8 0,-1 0,-2 0,-3 -1,-2 -2,-3 -3,-3 -2,-1 -3,-1 -5,-1l-12 0z"/>

   <path id="Vector-2.svg" fill="#182D42" d="M623 96c0,-3 -2,-5 -6,-5 -4,0 -6,1 -6,4 0,1 2,3 6,4 4,1 8,2 11,3 2,0 5,1 7,2 4,2 6,5 6,10 0,7 -3,13 -9,17 -6,4 -14,6 -23,5 -8,0 -14,-1 -18,-4 -4,-2 -6,-6 -6,-12l0 -2 20 0 0 1c0,4 2,6 7,6 1,0 3,-1 5,-2 0,0 1,-1 1,-1 1,-1 1,-2 1,-2 0,-2 -1,-3 -3,-4l-10 -2c-2,-1 -5,-2 -7,-3 -2,0 -4,-1 -6,-3 -2,-2 -3,-5 -3,-8l0 -1 0 -2c1,-4 3,-9 8,-12 3,-2 6,-4 9,-4 4,-1 8,-2 12,-2 16,0 24,5 24,15l0 2 -20 0zm-72 -15l8 0 3 -17 21 0 -3 17 10 0 -2 14 -11 0 -3 18 0 3c0,0 0,1 0,2 1,0 1,1 2,1 1,0 2,0 3,0 2,0 3,0 4,0l-2 16c-10,1 -20,1 -26,-2 -2,-1 -4,-4 -4,-8 0,-3 1,-6 1,-8l4 -22 -8 0 3 -14zm-41 0l20 0 -2 11c4,-9 11,-13 19,-13l3 0 -4 22c-2,0 -3,-1 -5,-1 -4,0 -7,1 -10,4 -3,2 -4,6 -6,12l-3 19 -21 0 9 -54zm-30 37l20 0c-2,5 -5,10 -11,13 -6,4 -13,5 -22,5 -8,0 -14,-2 -19,-6 -5,-4 -7,-9 -7,-16l0 -6c1,-2 2,-5 3,-7 1,-2 2,-5 4,-7 3,-4 7,-8 12,-11 2,-1 5,-2 8,-3 1,0 3,0 4,0 2,-1 4,-1 5,-1 7,0 12,1 16,4 3,2 6,5 8,9 2,4 3,9 3,13l0 4 -1 4 -41 0 0 2c0,2 1,4 2,6 1,0 2,1 3,2 1,0 3,0 4,0 2,1 3,0 5,-1 2,-1 3,-2 4,-4l0 0zm-16 -16l20 0c0,-2 0,-3 -1,-4 0,-1 -1,-2 -1,-3 -1,-1 -2,-2 -3,-2 -1,0 -2,-1 -3,-1 -3,0 -6,1 -8,3 -2,1 -3,4 -4,7zm-57 18c2,0 4,0 5,-1 2,-1 3,-2 4,-4 1,-2 1,-3 2,-5 0,-2 1,-4 1,-6 0,-6 -3,-9 -7,-9 -7,0 -11,6 -12,16 0,6 2,9 7,9l0 0zm-36 33l13 -72 19 0 -1 8c2,-4 5,-6 9,-8 3,-1 6,-2 10,-2l3 0c1,0 2,1 3,1 1,0 2,1 4,1 3,2 5,4 7,7 2,4 3,8 3,12 0,6 -2,12 -4,18 -3,5 -6,10 -11,13 -5,4 -10,6 -16,6 -3,0 -5,-1 -8,-2 -2,-1 -4,-3 -5,-5l-4 23 -22 0zm-51 -72l24 0 4 13 10 -13 24 0 -23 25 13 29 -24 0 -5 -16 -10 16 -24 0 24 -28 -13 -26zm-61 -21l61 0 -4 18 -36 0 -2 10 31 0 -3 18 -31 0 -2 11 38 0 -3 18 -62 0 13 -75z"/>

  </g>

 </g>

</svg>
