<svg id="Layer_1" xmlns="http://www.w3.org/2000/svg" viewBox="0 0 2000 677"><defs><style>.cls-1{fill:#77bb43;}.cls-1,.cls-2{stroke-width:0px;}.cls-2{fill:#016738;}</style></defs><path class="cls-2" d="M176.39,181.11h160.92c44.76,0,79.45,12.57,102.59,35.7,19.61,19.61,30.17,47.27,30.17,80.46v1.01c0,56.83-30.68,92.53-75.43,109.12l85.99,125.72h-90.52l-75.43-112.64h-60.85v112.64h-77.44V181.11ZM332.28,352.09c37.72,0,59.34-20.11,59.34-49.78v-1.01c0-33.19-23.13-50.29-60.85-50.29h-76.94v101.08h78.45Z"/><path class="cls-2" d="M1162.8,395.84v-1.01c0-76.94,60.05-140.3,138.5-140.3,90.02,0,141.72,69.9,141.72,146.34,0,6.03-.5,13.08-1.01,20.12h-211.12c7.54,34.7,39.53,52.8,73.73,52.8,25.65,0,33.79-2.81,54.91-22.42l72.99-.82c-20.93,52.34-80.12,84.59-128.9,84.59-80.96,0-140.81-56.82-140.81-139.3ZM1376.44,370.6c-4.52-34.19-40.34-54.71-72.52-54.71s-65.38,20.01-71.42,54.71h143.94Z"/><path class="cls-2" d="M1441.6,263.59h77.44l43.25,163.43,50.79-164.44h65.88l51.29,164.94,44.25-163.94h75.93l-83.98,271.55h-68.89l-51.8-165.44-52.8,165.44h-68.39l-82.97-271.55Z"/><path class="cls-1" d="M639.61,471.63c-60,5.45-78.5-49.72-78.5-49.72,0,0-18.32-52.34,18.32-75.89,36.64-23.55,88.97,2.62,88.97,2.62-34.02-28.78-70.65-23.55-70.65-23.55,91.59-31.4,109.91,49.72,109.91,49.72-13.08-13.08-41.87,5.23-75.89,18.32-34.02,13.08-60.19-20.93-60.19-20.93-5.23,10.47-4.15,42.52,20.93,57.57,26.17,15.7,44.49,13.08,99.44-7.85,36.41-13.87,65.92-15.1,81.69-14.36.49-4.74.74-9.56.74-14.43,0-77.32-62.68-140-140-140s-140,62.68-140,140,62.68,140,140,140c61.41,0,113.55-39.55,132.42-94.56-31.79-7.06-77.54,28.55-127.18,33.07Z"/><path class="cls-2" d="M812.81,181.11h71.41l164.94,216.74v-216.74h76.43v352.01h-65.87l-170.48-223.78v223.78h-76.44V181.11Z"/></svg>